<?xml version="1.0" encoding="UTF-8" standalone="no"?>
<svg width="141" height="146" version="1.1" id="svg60" xmlns="http://www.w3.org/2000/svg">
    <g id="g64">
        <path
            d="M13.3,126.4V37.4c0-2.4,.9-4.5,2.6-6.3c1.7-1.8,3.8-2.6 6.2-2.6h8.8v-6.7c0-3.1,1.1-5.7,3.2-7.9c2.2-2.2,4.7-3.3,7.8-3.3h4.4c3,0 5.6,1.1,7.8,3.3c2.2,2.2,3.2,4.8,3.2,7.9v6.7h26.4v-6.7c0-3.1,1.1-5.7 3.2-7.9c2.2-2.2,4.7-3.3,7.8-3.3h4.4c3,0,5.6,1.1,7.8,3.3c2.2,2.2,3.2 4.8,3.2,7.9v6.7h8.8c2.4,0,4.4,.9,6.2,2.6c1.7,1.8,2.6,3.8,2.6,6.3v88.9c0 2.4-.9,4.5-2.6,6.3c-1.7,1.8-3.8,2.6-6.2,2.6H22.1c-2.4,0-4.4-.9-6.2-2.6C14.2,130.8 13.3,128.8,13.3,126.4z M22.1,126.4h96.8V55.2H22.1V126.4z M39.7,41.9c0,.6,.2,1.2 .6,1.6c.4,.4,.9,.6,1.6,.6h4.4c.6,0,1.2-.2,1.6-.6c.4-.4 .6-.9,.6-1.6v-20c0-.6-.2-1.2-.6-1.6c-.4-.4-.9-.6-1.6-.6h-4.4c-.6,0-1.2,.2-1.6 .6c-.4,.4-.6,1-.6,1.6V41.9z M92.5,41.9c0,.6,.2,1.2,.6,1.6c.4,.4,.9,.6 1.6,.6h4.4c.6,0,1.2-.2,1.6-.6c.4-.4 .6-.9,.6-1.6v-20c0-.6-.2-1.2-.6-1.6c-.4-.4-.9-.6-1.6-.6h-4.4c-.6 0-1.2,.2-1.6,.6c-.4,.4-.6,1-.6,1.6V41.9z"
            stroke="white" fill="white" id="path58" />
        <g id="g189" transform="matrix(0.11663911,0,0,0.10799333,41.004561,60.890016)">
            <path
                d="M 429,230.7 H 314.4 v -100 H 276.9 C 288,116 294.7,97.4 294.7,77.3 v -0.4 0 C 294.7,48.1 281.1,21 259.1,6.3 L 249.7,0 240.4,6.3 c -21.9,14.8 -35.6,41.8 -35.6,70.6 v 0.4 c 0,20.1 6.7,38.7 17.9,53.6 l -0.2,-0.2 H 181 v 100 H 83 c -33.4,0 -60.4,27.1 -60.5,60.5 v 187.5 c 0,18.4 14.9,33.3 33.3,33.3 H 456 c 18.4,0 33.3,-14.9 33.3,-33.3 V 291.1 C 489.4,257.8 462.4,230.7 429,230.7 Z M 249.7,42.6 c 7.3,9.1 11.5,21.3 11.5,34.3 0,13 -4.2,25.3 -11.5,34.3 -7.3,-9 -11.5,-21.3 -11.5,-34.3 0,-13 4.2,-25.3 11.5,-34.3 z M 214.3,164 H 281 v 66.7 H 214.3 Z M 55.9,291.1 C 55.9,276.1 68,264 83,264 h 346 c 15,0 27.1,12.1 27.1,27.1 V 324 l -22.5,9.9 c -4.1,1.8 -8.9,2.9 -14,2.9 -5.1,0 -9.8,-1.1 -14.2,-3 l 0.2,0.1 -39.2,-17.3 -39.1,17.4 c -4.1,1.8 -8.9,2.9 -14,2.9 -5.1,0 -9.8,-1.1 -14.2,-3 l 0.2,0.1 -39.2,-17.3 -39,17.3 c -4.1,1.9 -8.9,2.9 -14,2.9 -5,0 -9.8,-1.1 -14.2,-3 L 193.1,334 154,316.7 114.8,334 c -4.1,1.9 -8.9,2.9 -14,2.9 -5,0 -9.8,-1.1 -14.2,-3 L 86.8,334 56,320.4 Z M 456.1,478.7 H 55.9 V 356.8 l 17.4,7.7 c 8.1,3.6 17.5,5.8 27.4,5.8 9.9,0 19.4,-2.1 27.9,-5.9 l -0.4,0.2 25.7,-11.3 25.7,11.3 c 8.1,3.6 17.5,5.8 27.4,5.8 9.9,0 19.4,-2.1 27.9,-5.9 l -0.4,0.2 25.7,-11.3 25.7,11.3 c 8.1,3.6 17.5,5.8 27.4,5.8 9.9,0 19.4,-2.1 27.9,-5.9 l -0.4,0.2 25.7,-11.3 25.7,11.3 c 8.1,3.6 17.5,5.8 27.4,5.8 9.9,0 19.4,-2.1 27.9,-5.9 l -0.4,0.2 9.1,-4 v 118.2 h -0.1 z"
                stroke="white" fill="white" id="path187" />
        </g>
    </g>
</svg>
